Coordinates
version=1
nRows=19
nColumns=63
inDegrees=yes

Units are S.I. units (second, meters, Newtons, ...)
If the header above contains a line with 'inDegrees', this indicates whether rotational values are in degrees (yes) or radians (no).

endheader
time	pelvis_tilt	pelvis_list	pelvis_rotation	pelvis_tx	pelvis_ty	pelvis_tz	hip_flexion_r	hip_adduction_r	hip_rotation_r	knee_angle_r	knee_angle_r_beta	ankle_angle_r	subtalar_angle_r	mtp_angle_r	hip_flexion_l	hip_adduction_l	hip_rotation_l	knee_angle_l	knee_angle_l_beta	ankle_angle_l	subtalar_angle_l	mtp_angle_l	L5_S1_Flex_Ext	L5_S1_Lat_Bending	L5_S1_axial_rotation	L4_L5_Flex_Ext	L4_L5_Lat_Bending	L4_L5_axial_rotation	L3_L4_Flex_Ext	L3_L4_Lat_Bending	L3_L4_axial_rotation	L2_L3_Flex_Ext	L2_L3_Lat_Bending	L2_L3_axial_rotation	L1_L2_Flex_Ext	L1_L2_Lat_Bending	L1_L2_axial_rotation	L1_T12_Flex_Ext	L1_T12_Lat_Bending	L1_T12_axial_rotation	Abs_r3	Abs_r2	Abs_r1	Abs_t1	Abs_t2	neck_flexion	neck_bending	neck_rotation	arm_flex_r	arm_add_r	arm_rot_r	elbow_flex_r	pro_sup_r	wrist_flex_r	wrist_dev_r	arm_flex_l	arm_add_l	arm_rot_l	elbow_flex_l	pro_sup_l	wrist_flex_l	wrist_dev_l
2.237288	-4.282038	0.524149	105.142739	0.328831	0.621951	0.932272	8.903813	-1.940547	-22.275724	17.359317	0.302977	33.350326	17.591189	0.000000	16.446419	-5.048833	-11.275065	25.924090	0.452461	33.292642	17.116320	0.000000	-0.117022	-0.023686	2.364268	-0.217321	-0.031503	2.512035	-0.192255	-0.057591	2.512035	-0.133744	-0.057591	2.068735	-0.108666	-0.048301	1.920968	-0.066866	-0.036690	1.773201	-0.835875	-0.267946	13.149351	0.000000	0.000000	8.931544	-3.659986	-8.891377	52.454051	-3.362437	9.126336	114.772919	89.914976	1.047209	6.649864	-1.072760	-36.126983	12.654221	133.960724	87.341800	-9.975112	3.210536
2.254237	-3.591723	0.244724	105.805730	0.325251	0.619922	0.932975	9.398020	-1.646806	-22.955661	17.641326	0.307899	33.537791	17.591814	0.000000	17.443211	-5.380508	-10.369092	26.724077	0.466423	33.800834	16.913921	0.000000	-0.094365	0.061668	2.068943	-0.175245	0.082019	2.198252	-0.155032	0.149940	2.198252	-0.107849	0.149940	1.810325	-0.087627	0.125754	1.681016	-0.053920	0.095524	1.551708	-0.674037	0.697602	11.506842	0.000000	0.000000	10.267627	-4.789824	-5.948764	52.617344	-3.197384	11.013478	114.074856	90.063734	-1.436375	4.715397	-1.127497	-38.251165	8.602816	137.260643	87.370073	-9.938765	2.777565
2.271186	-2.882395	-0.026816	106.481963	0.321522	0.617891	0.933937	9.936330	-1.381141	-23.691330	17.992692	0.314032	33.755681	17.611290	0.000000	18.399487	-5.684900	-9.439060	27.405409	0.478315	34.262226	16.735887	0.000000	-0.075082	0.142964	1.792371	-0.139434	0.190142	1.904394	-0.123352	0.347603	1.904394	-0.085811	0.347603	1.568325	-0.069721	0.291533	1.456302	-0.042902	0.221452	1.344278	-0.536302	1.617239	9.968631	0.000000	0.000000	11.576842	-5.759515	-3.357344	52.666311	-3.289627	12.638019	113.518354	89.774162	-3.668445	2.878243	-0.271646	-40.653165	4.881695	140.252376	87.462489	-9.885199	2.564257
2.288136	-2.171233	-0.283580	107.205389	0.317649	0.615888	0.935170	10.498292	-1.161515	-24.526957	18.401190	0.321161	33.999960	17.652222	0.000000	19.316039	-5.941971	-8.469975	27.975268	0.488261	34.669156	16.594454	0.000000	-0.058665	0.216542	1.532004	-0.108947	0.288000	1.627754	-0.096381	0.526499	1.627754	-0.067048	0.526499	1.340503	-0.054476	0.441572	1.244753	-0.033521	0.335423	1.149003	-0.419039	2.449563	8.520544	0.000000	0.000000	12.743400	-6.563066	-1.221851	52.591718	-3.653128	13.949087	113.077851	89.195790	-5.586803	1.259722	1.497094	-43.207719	1.543052	142.812626	87.617380	-9.729292	2.485255
2.305085	-1.480295	-0.535293	107.963858	0.313727	0.613892	0.936662	11.098259	-1.006069	-25.428079	18.883408	0.329578	34.273118	17.687541	0.000000	20.203497	-6.141086	-7.494357	28.450398	0.496553	35.029731	16.489536	0.000000	-0.043421	0.277012	1.296525	-0.080637	0.368427	1.377557	-0.071336	0.673528	1.377557	-0.049626	0.673528	1.134459	-0.040321	0.564884	1.053426	-0.024811	0.429092	0.972393	-0.310151	3.133620	7.210881	0.000000	0.000000	13.719457	-7.196551	0.340856	52.358396	-4.300639	14.873750	112.790534	88.589212	-7.137084	0.068685	4.212388	-45.768004	-1.263989	144.832022	87.824418	-9.475769	2.495341
2.322034	-0.823267	-0.790384	108.758307	0.309829	0.611899	0.938391	11.751997	-0.934580	-26.377479	19.463157	0.339696	34.569758	17.693920	0.000000	21.085675	-6.271132	-6.528773	28.864600	0.503782	35.346959	16.437792	0.000000	-0.026940	0.321597	1.085632	-0.050030	0.427723	1.153484	-0.044259	0.781930	1.153484	-0.030789	0.781930	0.949928	-0.025016	0.655800	0.882076	-0.015393	0.498153	0.814224	-0.192428	3.637964	6.037957	0.000000	0.000000	14.492402	-7.641036	1.381614	51.934305	-5.204178	15.394897	112.645267	88.025616	-8.221348	-0.715993	7.823215	-48.268383	-3.426034	146.240134	88.065594	-9.197097	2.551111
2.338983	-0.216768	-1.059740	109.581394	0.305989	0.609990	0.940255	12.452285	-0.955416	-27.335858	20.114555	0.351065	34.875607	17.650881	0.000000	21.945548	-6.317528	-5.583941	29.187854	0.509424	35.610279	16.439883	0.000000	-0.006594	0.348751	0.894534	-0.012245	0.463839	0.950442	-0.010833	0.847953	0.950442	-0.007536	0.847953	0.782717	-0.006123	0.711173	0.726809	-0.003768	0.540215	0.670900	-0.047099	3.945138	4.975129	0.000000	0.000000	15.067978	-7.910609	2.026883	51.291383	-6.295280	15.520653	112.689602	87.613326	-8.763568	-0.800307	12.235263	-50.675167	-4.867269	147.021940	88.322877	-8.925832	2.747194
2.355932	0.353775	-1.345366	110.399437	0.302234	0.608252	0.942177	13.203443	-1.046237	-28.263172	20.819601	0.363371	35.179964	17.555801	0.000000	22.778491	-6.303020	-4.680593	29.414355	0.513377	35.824504	16.491599	0.000000	0.018872	0.362813	0.720835	0.035046	0.482541	0.765888	0.031004	0.882144	0.765888	0.021568	0.882144	0.630731	0.017524	0.739848	0.585679	0.010783	0.561997	0.540627	0.134798	4.104214	4.009070	0.000000	0.000000	15.516686	-8.011677	2.507242	50.441998	-7.525863	15.337880	112.964240	87.546556	-8.804764	-0.061740	17.262269	-52.993158	-5.635747	147.206845	88.564219	-8.663724	3.182072
2.372881	0.871621	-1.645827	111.157555	0.298659	0.606786	0.944095	14.006603	-1.211667	-29.087755	21.573953	0.376537	35.482957	17.406229	0.000000	23.554323	-6.227976	-3.868583	29.524540	0.515300	35.976671	16.584606	0.000000	0.047704	0.363726	0.574554	0.088591	0.483755	0.610464	0.078372	0.884363	0.610464	0.054521	0.884363	0.502735	0.044298	0.741710	0.466825	0.027258	0.563411	0.430916	0.340743	4.114539	3.195499	0.000000	0.000000	15.888733	-7.931931	2.915180	49.385595	-8.876717	14.892410	113.539442	88.039386	-8.443534	1.603673	22.847408	-55.208108	-5.691841	146.813040	88.744837	-8.350010	3.959643
2.389831	1.342882	-1.946635	111.831958	0.295323	0.605678	0.945970	14.849519	-1.420076	-29.746043	22.357654	0.390215	35.776291	17.163950	0.000000	24.253573	-6.117855	-3.159970	29.518730	0.515199	36.061083	16.727828	0.000000	0.077640	0.353736	0.464069	0.144186	0.470469	0.493073	0.127555	0.860073	0.493073	0.088735	0.860073	0.406060	0.072097	0.721338	0.377056	0.044364	0.547937	0.348051	0.554577	4.001530	2.581010	0.000000	0.000000	16.213250	-7.673101	3.222909	48.120559	-10.355590	14.205821	114.471465	88.909858	-7.867889	4.155840	28.981203	-57.250483	-4.968758	145.851965	88.838146	-7.891421	5.092642
2.406780	1.780243	-2.229187	112.433219	0.292185	0.605003	0.947759	15.699420	-1.645785	-30.264077	23.152540	0.404088	36.054505	16.869932	0.000000	24.856407	-5.991639	-2.509028	29.402097	0.513163	36.071671	16.876529	0.000000	0.106398	0.335863	0.387854	0.197593	0.446698	0.412095	0.174802	0.816617	0.412095	0.121603	0.816617	0.339372	0.098802	0.684892	0.315131	0.060796	0.520252	0.290890	0.759993	3.799349	2.157127	0.000000	0.000000	16.506794	-7.248872	3.358215	46.641552	-12.009624	13.399512	115.737950	89.433805	-7.416126	7.149959	35.576544	-59.031228	-3.467024	144.351394	88.838505	-7.222099	6.408356
2.423729	2.150360	-2.497085	112.880295	0.289430	0.604766	0.949393	16.568086	-1.895525	-30.525074	23.973044	0.418409	36.315996	16.499104	0.000000	25.336042	-5.852743	-2.017058	29.176341	0.509223	35.986182	17.032958	0.000000	0.130893	0.306219	0.363554	0.243081	0.407272	0.386276	0.215044	0.744542	0.386276	0.149598	0.744542	0.318110	0.121547	0.624443	0.295387	0.074792	0.474334	0.272665	0.934956	3.464015	2.021977	0.000000	0.000000	16.821684	-6.685484	3.233999	44.980636	-13.797994	12.436667	117.364722	88.914895	-6.749723	10.545013	42.541943	-60.553334	-1.196821	142.387476	88.815876	-6.387012	7.690847
2.440678	2.507642	-2.738589	113.216344	0.286869	0.604961	0.950846	17.439644	-2.113880	-30.586244	24.815669	0.433115	36.524765	16.060876	0.000000	25.715973	-5.749594	-1.612371	28.883452	0.504111	35.816987	17.158238	0.000000	0.152883	0.275038	0.356035	0.283918	0.365801	0.378287	0.251171	0.668729	0.378287	0.174729	0.668729	0.311530	0.141967	0.560858	0.289278	0.087357	0.426035	0.267026	1.092025	3.111290	1.980158	0.000000	0.000000	17.179248	-6.057958	3.040396	43.236960	-15.675035	11.689938	119.212809	86.912937	-6.430040	13.721101	49.475648	-61.791200	1.567795	140.135911	88.831415	-5.461706	8.660338
2.457627	2.888232	-2.957314	113.429512	0.284406	0.605563	0.952053	18.321605	-2.268648	-30.436037	25.683751	0.448266	36.626106	15.544268	0.000000	26.011536	-5.717139	-1.288126	28.541058	0.498135	35.565584	17.215646	0.000000	0.173442	0.251992	0.332976	0.322099	0.335149	0.353787	0.284948	0.612693	0.353787	0.198227	0.612693	0.291354	0.161058	0.513862	0.270543	0.099105	0.390336	0.249732	1.238879	2.850584	1.851913	0.000000	0.000000	17.639582	-5.431783	3.158788	41.595129	-17.471846	11.411025	121.148067	83.350779	-6.524496	16.478916	55.537052	-62.851357	4.091531	137.876783	88.847239	-4.596628	9.215797
2.474576	3.280839	-3.157310	113.517923	0.282112	0.606544	0.952947	19.228701	-2.335946	-29.996915	26.611247	0.464454	36.527118	14.807128	0.000000	26.211479	-5.754868	-1.044759	28.143313	0.491193	35.227710	17.193035	0.000000	0.193501	0.234029	0.287949	0.359351	0.311258	0.305946	0.317903	0.569017	0.305946	0.221152	0.569017	0.251955	0.179685	0.477231	0.233958	0.110567	0.362510	0.215962	1.382159	2.647380	1.601485	0.000000	0.000000	18.259159	-4.809629	3.506361	40.062060	-19.088878	11.592282	123.082034	78.281848	-7.154321	18.647583	60.783491	-63.722070	6.586374	135.785197	88.861273	-3.932352	9.351870
2.491525	3.751976	-3.345402	113.497510	0.279775	0.607879	0.953515	20.176544	-2.274971	-29.323617	27.597731	0.481671	36.114634	13.861083	0.000000	26.346836	-5.908604	-0.834518	27.688797	0.483261	34.826227	17.063630	0.000000	0.215176	0.236702	0.183788	0.399603	0.314814	0.195275	0.353512	0.575517	0.195275	0.245924	0.575517	0.160815	0.199812	0.482683	0.149328	0.122951	0.366651	0.137841	1.536979	2.677620	1.022174	0.000000	0.000000	19.100182	-4.240070	4.603832	38.859002	-20.346083	12.377695	124.849684	71.618089	-8.061983	20.420838	63.997755	-64.479717	7.836134	134.125717	88.863610	-3.554334	9.081129
2.508475	4.277429	-3.480776	113.358474	0.277455	0.609673	0.953898	21.138887	-2.088305	-28.412890	28.675919	0.500489	35.282788	12.679879	0.000000	26.351398	-6.169096	-0.658773	27.135241	0.473599	34.352500	16.815542	0.000000	0.232354	0.260052	0.053599	0.431505	0.345869	0.056949	0.381734	0.632291	0.056949	0.265557	0.632291	0.046899	0.215764	0.530298	0.043549	0.132767	0.402821	0.040199	1.659682	2.941763	0.298100	0.000000	0.000000	20.065108	-3.755347	6.297773	38.036597	-21.316795	13.597730	126.397840	63.450153	-9.061635	22.031082	65.400400	-65.203047	8.022996	132.787613	88.837034	-3.560184	8.274427
2.525424	4.855964	-3.554824	113.113418	0.275204	0.611906	0.954167	22.124887	-1.779873	-27.309223	29.874159	0.521402	33.972492	11.250377	0.000000	26.222242	-6.540415	-0.509747	26.475974	0.462093	33.819777	16.467078	0.000000	0.243078	0.304029	-0.091887	0.451420	0.404359	-0.097630	0.399353	0.739216	-0.097630	0.277814	0.739216	-0.080401	0.225722	0.619976	-0.074658	0.138895	0.470941	-0.068915	1.736282	3.439238	-0.511048	0.000000	0.000000	21.100495	-3.353114	8.435997	37.674369	-22.018856	15.091731	127.670568	54.657420	-9.803714	23.589911	65.037570	-65.958575	7.032156	131.808066	88.778020	-3.906108	7.128733
2.542373	5.457315	-3.578777	112.766027	0.273148	0.614494	0.954344	23.160381	-1.381654	-26.037298	31.236646	0.545182	32.204008	9.584727	0.000000	25.963548	-7.002515	-0.421117	25.712688	0.448771	33.235373	16.065339	0.000000	0.246851	0.361685	-0.245897	0.458428	0.481041	-0.261266	0.405552	0.879400	-0.261266	0.282127	0.879400	-0.215160	0.229226	0.737547	-0.199792	0.141051	0.560250	-0.184423	1.763236	4.091449	-1.367607	0.000000	0.000000	22.151472	-2.928747	10.808175	37.801205	-22.450199	16.683676	128.632752	46.431503	-10.064310	24.941277	63.142798	-66.791954	4.908260	131.244134	88.714835	-4.510717	5.975239
